<svg width="102" height="35" viewBox="0 0 102 35" fill="none" xmlns="http://www.w3.org/2000/svg">
<path d="M29.643 17.6519L15.1617 32.1475C17.0659 33.9674 19.5997 34.984 22.2321 34.984C27.85 34.984 32.4727 30.3547 32.4727 24.7291C32.4727 22.0945 31.4587 19.5585 29.643 17.6519Z" fill="#009688"/>
<path d="M29.7981 2.99075C25.9147 -0.997239 19.2022 -0.995295 15.3168 2.99075L29.7981 17.5C31.7198 15.5773 32.8008 12.9658 32.8008 10.2454C32.8008 7.52493 31.7198 4.91339 29.7981 2.99075Z" fill="#009688"/>
<path fill-rule="evenodd" clip-rule="evenodd" d="M15.3168 2.99079L0.833557 17.5L15.3168 32.0014L22.5555 34.9986C21.6453 34.4156 17.5669 33.0256 15.3168 32.0092C17.2282 33.941 19.8402 35.0199 22.5555 34.9997H4.32865C2.4112 34.9997 0.833557 33.4199 0.833557 31.4998V3.50022C0.833557 1.58012 2.4112 0.000279214 4.32865 0.000279214H22.5555C19.8402 -0.0199427 17.2282 1.05901 15.3168 2.99079C15.8139 3.48856 15.3168 2.99079 15.3168 2.99079Z" fill="#FFC107"/>
<path fill-rule="evenodd" clip-rule="evenodd" d="M22.5555 34.9995V34.9984C20.3948 33.8506 18.5018 32.2564 17.0022 30.3213L15.3168 32.009C17.2282 33.9408 19.8402 35.0198 22.5555 34.9995Z" fill="#004D40" fill-opacity="0.6"/>
<path fill-rule="evenodd" clip-rule="evenodd" d="M22.5555 0.000279213C19.8402 -0.0199427 17.2282 1.05901 15.3168 2.99079C15.8139 3.48856 16.3828 4.06021 17.0022 4.67854C18.5018 2.74346 20.3948 1.14923 22.5555 0.00144586V0.000279213Z" fill="#004D40" fill-opacity="0.6"/>
<path d="M49.1998 13.5468L59.7219 24.0952H53.1686L44.862 15.7673V24.0952H40.5649V2.9964H44.862V11.3263L53.1686 2.99834H59.7219L49.1998 13.5468ZM76.9352 13.5468C77.9496 14.706 78.5092 16.1959 78.5092 17.737C78.5092 21.2251 75.6428 24.0952 72.1598 24.0952C72.1586 24.0952 72.1576 24.0952 72.1567 24.0952H61.8772V2.9964H72.1586C72.1596 2.9964 72.1606 2.9964 72.1613 2.9964C75.6446 2.9964 78.5108 5.86655 78.5108 9.35463C78.5108 10.8967 77.9506 12.3873 76.9352 13.5468ZM66.2131 11.3729H72.1567C73.2623 11.3729 74.1722 10.4618 74.1722 9.35463C74.1722 8.24748 73.2623 7.33633 72.1567 7.33633H66.2131V11.3729ZM72.1567 15.7187H66.2131V19.7553H72.1567C74.8304 19.6484 74.8304 15.8237 72.1567 15.7187ZM101.708 2.99834L91.1855 13.5235L80.6653 2.99834V24.0952H84.9604V13.8521L91.1855 20.0742L97.4106 13.8521V24.0952H101.708V2.99834Z" fill="#273238"/>
<path d="M42.4503 31.2334C42.7206 31.2482 42.9898 31.1869 43.227 31.0565C43.4045 30.9497 43.5103 30.7541 43.5028 30.547C43.507 30.4024 43.4523 30.2618 43.3513 30.1582C43.2397 30.0508 43.1016 29.975 42.9513 29.9384L42.4212 29.7965L41.8387 29.6409C41.6502 29.5912 41.4686 29.5173 41.2989 29.4212C41.1337 29.3211 40.9991 29.177 40.9106 29.0051C40.802 28.7951 40.7492 28.5608 40.7572 28.3246C40.7541 27.9256 40.9311 27.5458 41.2387 27.2921C41.5972 26.9967 42.0529 26.8457 42.5164 26.8682C42.995 26.8392 43.4657 27.0032 43.8231 27.3232C44.1348 27.6304 44.3088 28.0518 44.3047 28.4899H43.4795C43.4831 28.255 43.3903 28.0284 43.2231 27.8638C43.0309 27.6889 42.7756 27.5997 42.5164 27.6168C42.2766 27.6034 42.0385 27.6646 41.8348 27.7918C41.6735 27.9056 41.5805 28.094 41.5882 28.2915C41.5851 28.4269 41.6412 28.5567 41.7416 28.6473C41.8568 28.7471 41.9938 28.8185 42.1416 28.8554L42.6795 28.9993L43.262 29.1587C43.4527 29.2087 43.6352 29.2861 43.8037 29.3882C43.9695 29.4953 44.1037 29.645 44.1921 29.8218C44.2987 30.0351 44.3507 30.2717 44.3435 30.5101C44.3554 30.9344 44.1558 31.3378 43.8115 31.5854C43.3946 31.8718 42.895 32.0133 42.3902 31.9879C41.7863 31.9879 41.33 31.8284 41.0309 31.5095C40.7282 31.1967 40.557 30.7786 40.5533 30.3429H41.3843C41.3915 30.5898 41.4997 30.8233 41.6834 30.9884C41.8999 31.1624 42.1733 31.2498 42.4503 31.2334Z" fill="#999999"/>
<path d="M45.7203 31.2644C44.7727 30.2321 44.7727 28.6256 45.7203 27.5933C46.7387 26.6244 48.3581 26.6244 49.3765 27.5933C50.3241 28.6256 50.3241 30.2321 49.3765 31.2644C48.3581 32.2333 46.7387 32.2333 45.7203 31.2644ZM46.3571 28.1533C45.7408 28.8885 45.7408 29.9712 46.3571 30.7063C47.0162 31.3482 48.0806 31.3482 48.7396 30.7063C49.3559 29.9712 49.3559 28.8885 48.7396 28.1533C48.0814 27.5095 47.0154 27.5095 46.3571 28.1533Z" fill="#999999"/>
<path d="M51.8231 31.8886H50.9843V26.9673H54.1997V27.7451H51.8231V29.007H54.0813V29.7847H51.8231V31.8886Z" fill="#999999"/>
<path d="M58.1414 26.9673V27.7645H56.7142V31.8886H55.8754V27.7645H54.4482V26.9673H58.1414Z" fill="#999999"/>
<path d="M61.7801 28.1475L60.6772 31.8885H59.7957L58.2656 26.9633H59.2151L60.2501 30.7063H60.2637L61.3588 26.9672H62.2753L63.3704 30.7063H63.384L64.4286 26.9672H65.349L63.815 31.8885H62.9141L61.8131 28.1494L61.7801 28.1475Z" fill="#999999"/>
<path d="M65.9957 31.8885H65.1044L67.0093 26.9633H67.9025L69.8209 31.8885H68.9063L68.551 30.9377H66.351L65.9957 31.8885ZM67.4578 27.9997H67.4461L66.6365 30.1697H68.2675L67.4578 27.9997Z" fill="#999999"/>
<path d="M74.3508 31.8886H73.3683L72.3703 29.9442H71.2402V31.8886H70.4033V26.9673H72.5645C73.0044 26.9369 73.439 27.0839 73.7703 27.3756C74.0526 27.6632 74.2033 28.0557 74.1858 28.4586C74.1939 28.7662 74.1093 29.0692 73.9431 29.3278C73.7703 29.5786 73.5155 29.7616 73.2227 29.845L74.3508 31.8886ZM73.145 28.9719C73.2788 28.8335 73.3493 28.6453 73.3392 28.4528C73.3489 28.2599 73.2786 28.0711 73.145 27.9317C72.9858 27.7896 72.7749 27.7192 72.5625 27.7372H71.2402V29.1664H72.5703C72.7802 29.1823 72.9877 29.1121 73.145 28.9719Z" fill="#999999"/>
<path d="M78.5217 31.1108V31.8886H75.0654V26.9673H78.5217V27.7451H75.9023V29.007H78.4032V29.7847H75.9023V31.1108H78.5217Z" fill="#999999"/>
<path d="M85.8167 29.1991V31.8883H85.0613V31.1805C84.8982 31.4319 84.6691 31.6337 84.3992 31.7638C84.0913 31.9099 83.7536 31.9824 83.4128 31.9758C82.7596 31.9977 82.1272 31.7385 81.6769 31.2641C80.7703 30.2042 80.7762 28.6228 81.6905 27.5697C82.1534 27.092 82.7971 26.8318 83.4614 26.8542C84.0126 26.8384 84.5534 27.0097 84.9953 27.3403C85.4194 27.6656 85.7075 28.1381 85.8031 28.6644H84.8944C84.8192 28.3623 84.6351 28.0984 84.3779 27.9236C84.1072 27.7426 83.7868 27.6502 83.4614 27.6592C83.0256 27.6364 82.602 27.8106 82.308 28.1336C82.0136 28.4933 81.8641 28.9506 81.8886 29.415C81.8666 29.8859 82.0179 30.3491 82.3138 30.7158C82.6006 31.0475 83.0237 31.2303 83.4614 31.2116C83.8396 31.2262 84.2116 31.1093 84.5138 30.8811C84.7959 30.6522 84.9734 30.3178 85.005 29.9555H83.6905V29.1914L85.8167 29.1991Z" fill="#999999"/>
<path d="M89.9311 29.8256V31.8886H89.1079V29.7303C89.1079 29.1859 88.8807 28.9117 88.4283 28.9117C88.2098 28.9045 87.9982 28.9901 87.8457 29.147C87.6937 29.3265 87.616 29.5575 87.6283 29.7925V31.8886H86.803V28.2915H87.5661V28.7776C87.6607 28.609 87.7997 28.4698 87.9681 28.3751C88.1739 28.2631 88.4057 28.208 88.6399 28.2156C89.0783 28.1859 89.4976 28.4068 89.7214 28.7853C90.0131 28.4122 90.4659 28.2003 90.9389 28.2156C91.3043 28.1919 91.6616 28.335 91.9098 28.6045C92.1465 28.894 92.2676 29.2613 92.2496 29.635V31.8886H91.4243V29.7303C91.4243 29.1859 91.1991 28.9117 90.7467 28.9117C90.524 28.9004 90.3071 28.9879 90.1545 29.1509C89.9964 29.3387 89.9166 29.5804 89.9311 29.8256Z" fill="#999999"/>
<path d="M94.0359 28.7638C94.2928 28.3864 94.7326 28.1741 95.1874 28.2077C95.6561 28.1867 96.1087 28.387 96.4087 28.7483C96.7137 29.1294 96.8722 29.6077 96.8553 30.0957C96.873 30.582 96.7141 31.0588 96.4087 31.4374C96.1079 31.7975 95.6557 31.997 95.1874 31.976C94.6282 31.976 94.2165 31.7815 93.9738 31.379V31.8885H93.2126V26.6891H94.0359V28.7638ZM94.0087 30.0957C93.9975 30.3946 94.0948 30.6876 94.2825 30.9202C94.4699 31.1294 94.7377 31.2492 95.0184 31.2492C95.2992 31.2492 95.567 31.1294 95.7543 30.9202C95.9433 30.6896 96.0419 30.3977 96.032 30.0996C96.0439 29.7971 95.9452 29.5004 95.7543 29.2655C95.5654 29.059 95.2982 28.9411 95.0184 28.9411C94.7386 28.9411 94.4715 29.059 94.2825 29.2655C94.0934 29.4998 93.9948 29.7945 94.0049 30.0957H94.0087Z" fill="#999999"/>
<path d="M101.708 26.9673V31.8886H100.871V29.7828H98.5407V31.8886H97.7039V26.9673H98.5407V29.005H100.871V26.9673H101.708Z" fill="#999999"/>
</svg>
