<svg width="28" height="30" viewBox="0 0 28 30" fill="none" xmlns="http://www.w3.org/2000/svg">
<path d="M24.6937 15.1299L12.2812 27.5547C13.9134 29.1146 16.0852 29.9859 18.3415 29.9859C23.1569 29.9859 27.1192 26.018 27.1192 21.1961C27.1192 18.9378 26.2501 16.7642 24.6937 15.1299Z" fill="#009688"/>
<path d="M24.8267 2.56357C21.4981 -0.854705 15.7445 -0.853038 12.4142 2.56357L24.8267 15C26.4739 13.352 27.4004 11.1136 27.4004 8.78179C27.4004 6.45 26.4739 4.21154 24.8267 2.56357Z" fill="#009688"/>
<path fill-rule="evenodd" clip-rule="evenodd" d="M12.4142 2.56353L0 15L12.4142 27.4297L18.6188 29.9987C17.8386 29.499 14.3428 28.3076 12.4142 27.4364C14.0526 29.0922 16.2914 30.017 18.6188 29.9997H2.99578C1.35226 29.9997 0 28.6456 0 26.9998V3.00019C0 1.35438 1.35226 0.000239325 2.99578 0.000239325H18.6188C16.2914 -0.0170937 14.0526 0.907723 12.4142 2.56353C12.8403 2.99019 12.4142 2.56353 12.4142 2.56353Z" fill="#FFC107"/>
<path fill-rule="evenodd" clip-rule="evenodd" d="M18.6188 30.0002V29.9992C16.7667 29.0153 15.1442 27.6489 13.8588 25.9902L12.4142 27.4369C14.0526 29.0927 16.2914 30.0175 18.6188 30.0002Z" fill="#004D40" fill-opacity="0.6"/>
<path fill-rule="evenodd" clip-rule="evenodd" d="M18.6188 0.000239325C16.2914 -0.0170937 14.0526 0.907723 12.4142 2.56353C12.8403 2.99018 13.3279 3.48018 13.8588 4.01017C15.1442 2.35153 16.7667 0.985055 18.6188 0.00123931V0.000239325Z" fill="#004D40" fill-opacity="0.6"/>
</svg>
